<mxfile host="app.diagrams.net" modified="2023-02-09T15:48:46.543Z" agent="5.0 (Windows NT 10.0; Win64; x64) AppleWebKit/537.36 (KHTML, like Gecko) Chrome/109.0.0.0 Safari/537.36" etag="cYa4_wYNibyjWDslDom2" version="20.8.19" type="github">
  <diagram name="Page-1" id="WmZ7SuF_WmqMI9D_oavd">
    <mxGraphModel dx="636" dy="356" grid="1" gridSize="10" guides="1" tooltips="1" connect="1" arrows="1" fold="1" page="1" pageScale="1" pageWidth="850" pageHeight="1100" math="0" shadow="0">
      <root>
        <mxCell id="0" />
        <mxCell id="1" parent="0" />
        <mxCell id="MsBItRkalFy82XBEUcur-1" value="" style="rounded=1;whiteSpace=wrap;html=1;" vertex="1" parent="1">
          <mxGeometry x="330" y="80" width="140" height="60" as="geometry" />
        </mxCell>
        <mxCell id="MsBItRkalFy82XBEUcur-2" value="" style="rounded=1;whiteSpace=wrap;html=1;" vertex="1" parent="1">
          <mxGeometry x="350" y="330" width="140" height="60" as="geometry" />
        </mxCell>
        <mxCell id="MsBItRkalFy82XBEUcur-3" value="" style="shape=image;html=1;verticalAlign=top;verticalLabelPosition=bottom;labelBackgroundColor=#ffffff;imageAspect=0;aspect=fixed;image=https://cdn1.iconfinder.com/data/icons/unicons-line-vol-3/24/docker-128.png" vertex="1" parent="1">
          <mxGeometry x="355" y="335.5" width="49" height="49" as="geometry" />
        </mxCell>
        <mxCell id="MsBItRkalFy82XBEUcur-6" value="&lt;b&gt;&lt;br&gt;nginx conf&lt;/b&gt;" style="whiteSpace=wrap;html=1;shape=mxgraph.basic.document;fontSize=13;" vertex="1" parent="1">
          <mxGeometry x="50" y="40" width="100" height="110" as="geometry" />
        </mxCell>
        <mxCell id="MsBItRkalFy82XBEUcur-11" value="" style="group" vertex="1" connectable="0" parent="1">
          <mxGeometry y="250" width="130" height="70" as="geometry" />
        </mxCell>
        <mxCell id="MsBItRkalFy82XBEUcur-4" value="&lt;div style=&quot;&quot;&gt;&lt;b style=&quot;background-color: initial; font-size: 13px;&quot;&gt;&amp;nbsp; &amp;nbsp; &amp;nbsp;nginx conf&lt;/b&gt;&lt;/div&gt;" style="shape=note;whiteSpace=wrap;html=1;backgroundOutline=1;darkOpacity=0.05;align=center;size=21;" vertex="1" parent="MsBItRkalFy82XBEUcur-11">
          <mxGeometry width="130" height="70" as="geometry" />
        </mxCell>
        <mxCell id="MsBItRkalFy82XBEUcur-5" value="" style="shape=image;html=1;verticalLabelPosition=bottom;verticalAlign=top;imageAspect=1;aspect=fixed;image=img/clipart/Gear_128x128.png" vertex="1" parent="MsBItRkalFy82XBEUcur-11">
          <mxGeometry x="5" y="16.230000000000018" width="32" height="37.54" as="geometry" />
        </mxCell>
        <mxCell id="MsBItRkalFy82XBEUcur-12" value="" style="group" vertex="1" connectable="0" parent="1">
          <mxGeometry y="350" width="130" height="70" as="geometry" />
        </mxCell>
        <mxCell id="MsBItRkalFy82XBEUcur-9" value="&lt;div style=&quot;&quot;&gt;&lt;b style=&quot;background-color: initial; font-size: 13px;&quot;&gt;&amp;nbsp; &amp;nbsp; &amp;nbsp;web conf&lt;/b&gt;&lt;/div&gt;" style="shape=note;whiteSpace=wrap;html=1;backgroundOutline=1;darkOpacity=0.05;align=center;size=21;" vertex="1" parent="MsBItRkalFy82XBEUcur-12">
          <mxGeometry width="130" height="70" as="geometry" />
        </mxCell>
        <mxCell id="MsBItRkalFy82XBEUcur-10" value="" style="shape=image;html=1;verticalLabelPosition=bottom;verticalAlign=top;imageAspect=1;aspect=fixed;image=img/clipart/Gear_128x128.png" vertex="1" parent="MsBItRkalFy82XBEUcur-12">
          <mxGeometry x="8" y="16.230000000000018" width="32" height="37.54" as="geometry" />
        </mxCell>
        <mxCell id="MsBItRkalFy82XBEUcur-13" value="" style="group" vertex="1" connectable="0" parent="1">
          <mxGeometry x="170" y="250" width="130" height="70" as="geometry" />
        </mxCell>
        <mxCell id="MsBItRkalFy82XBEUcur-14" value="&lt;div style=&quot;&quot;&gt;&lt;b style=&quot;background-color: initial; font-size: 13px;&quot;&gt;&amp;nbsp; &amp;nbsp; &amp;nbsp;nginx conf&lt;/b&gt;&lt;/div&gt;" style="shape=note;whiteSpace=wrap;html=1;backgroundOutline=1;darkOpacity=0.05;align=center;size=21;" vertex="1" parent="MsBItRkalFy82XBEUcur-13">
          <mxGeometry width="130" height="70" as="geometry" />
        </mxCell>
        <mxCell id="MsBItRkalFy82XBEUcur-16" value="" style="group" vertex="1" connectable="0" parent="1">
          <mxGeometry x="170" y="350" width="130" height="70" as="geometry" />
        </mxCell>
        <mxCell id="MsBItRkalFy82XBEUcur-17" value="&lt;div style=&quot;&quot;&gt;&lt;b style=&quot;background-color: initial; font-size: 13px;&quot;&gt;&amp;nbsp; &amp;nbsp; &amp;nbsp;web conf&lt;/b&gt;&lt;/div&gt;" style="shape=note;whiteSpace=wrap;html=1;backgroundOutline=1;darkOpacity=0.05;align=center;size=21;" vertex="1" parent="MsBItRkalFy82XBEUcur-16">
          <mxGeometry width="130" height="70" as="geometry" />
        </mxCell>
        <mxCell id="MsBItRkalFy82XBEUcur-18" value="" style="shape=image;html=1;verticalLabelPosition=bottom;verticalAlign=top;imageAspect=1;aspect=fixed;image=img/clipart/Gear_128x128.png" vertex="1" parent="MsBItRkalFy82XBEUcur-16">
          <mxGeometry x="8" y="16.230000000000018" width="32" height="37.54" as="geometry" />
        </mxCell>
      </root>
    </mxGraphModel>
  </diagram>
</mxfile>
